<?xml version="1.0" standalone="no"?><!DOCTYPE svg PUBLIC "-//W3C//DTD SVG 1.1//EN" "http://www.w3.org/Graphics/SVG/1.1/DTD/svg11.dtd"><svg t="1712412995507" class="icon" viewBox="0 0 1024 1024" version="1.1" xmlns="http://www.w3.org/2000/svg" p-id="5659" xmlns:xlink="http://www.w3.org/1999/xlink" width="200" height="200"><path d="M85.125565 747.297391c33.836522 33.613913 155.514435-32.634435 155.514435-32.634434 15.582609 9.126957 32.812522 16.428522 49.41913 22.706086a345.933913 345.933913 0 0 1 78.758957-367.304347 345.933913 345.933913 0 0 1 369.753043-78.180174 350.564174 350.564174 0 0 0-78.580869-120.876522C524.733217 35.929043 305.41913 35.929043 170.340174 170.963478A346.022957 346.022957 0 0 0 117.537391 592.584348s-65.981217 121.277217-32.367304 154.713043z" fill="#00FFB0" p-id="5660"></path><path d="M769.157565 263.123478a388.85287 388.85287 0 0 0-80.584348-118.873043c-150.839652-150.661565-396.154435-150.661565-546.860521 0a386.003478 386.003478 0 0 0-70.166261 450.871652c-28.182261 56.854261-57.61113 140.377043-14.959305 182.761739 42.829913 42.607304 126.976 12.688696 183.963827-15.582609 5.921391 2.80487 12.377043 5.609739 19.144347 8.459131a385.29113 385.29113 0 0 0 80.495305 119.273739 386.982957 386.982957 0 0 0 448.378434 71.279304c56.987826 28.360348 140.911304 58.145391 183.741218 15.582609 42.562783-42.562783 13.133913-125.996522-15.048348-182.761739A385.736348 385.736348 0 0 0 769.157565 263.123478zM221.273043 681.004522c-38.15513 20.74713-85.303652 37.175652-105.427478 37.398261 0.356174-19.945739 16.695652-66.738087 37.264696-104.626087l10.996869-20.257392-11.842782-19.812174a305.062957 305.062957 0 0 1 46.747826-372.201739 304.795826 304.795826 0 0 1 216.108522-89.35513 305.018435 305.018435 0 0 1 243.266782 120.386782c-3.205565-0.356174-6.455652-0.578783-9.616695-0.890434l-8.013913-0.667826a389.298087 389.298087 0 0 0-22.26087-0.934957l-2.982957-0.133565c-8.370087 0-16.740174 0.26713-25.021217 0.756869-2.493217 0.133565-4.986435 0.445217-7.43513 0.623305a406.171826 406.171826 0 0 0-26.401392 2.982956c-5.921391 0.890435-11.798261 1.914435-17.67513 3.116522l-7.212522 1.380174c-8.102957 1.78087-16.161391 3.739826-24.130782 6.010435l-4.006957 1.246608c-6.678261 2.003478-13.312 4.140522-19.856696 6.500174-2.671304 0.890435-5.253565 1.914435-7.835826 2.938435a391.746783 391.746783 0 0 0-41.538782 18.654609c-1.647304 0.890435-3.383652 1.691826-5.075479 2.582261-7.346087 4.006957-14.558609 8.236522-21.637565 12.688695l-5.787826 3.82887a379.859478 379.859478 0 0 0-36.596869 27.158261l-6.188522 5.209043a398.781217 398.781217 0 0 0-18.966261 17.630609c-6.188522 6.188522-12.02087 12.599652-17.764174 19.099826-1.825391 2.092522-3.561739 4.274087-5.342609 6.41113a396.822261 396.822261 0 0 0-16.695652 21.370435 376.832 376.832 0 0 0-24.086261 37.843479l-3.294608 5.787826c-4.006957 7.43513-7.702261 14.959304-11.174957 22.617043-0.890435 1.869913-1.602783 3.784348-2.404174 5.698783a398.825739 398.825739 0 0 0-7.257043 17.764174c-1.068522 2.80487-2.048 5.654261-3.027479 8.45913a385.869913 385.869913 0 0 0-11.931826 41.22713c-0.667826 2.760348-1.335652 5.520696-1.914434 8.281044-1.513739 7.346087-2.80487 14.692174-3.917913 22.127304l-0.445218 2.715826a378.746435 378.746435 0 0 0-2.671304 24.932174l-0.445218 8.147479a406.038261 406.038261 0 0 0-0.489739 26.713043c0.044522 5.476174 0.26713 10.907826 0.578783 16.384 0.178087 3.116522 0.311652 6.277565 0.578782 9.438609 0.489739 5.965913 1.202087 11.931826 1.958957 17.897739l0.890435 7.479652c0.133565 0.578783 0.178087 1.113043 0.222608 1.691826l-10.24 5.698783z m654.469566 131.873391c20.524522 37.843478 36.864 84.591304 37.175652 104.537044-20.034783-0.311652-67.183304-16.784696-105.382957-37.576348l-20.079304-10.907826-19.72313 11.486608a305.864348 305.864348 0 0 1-370.198261-47.638261 305.953391 305.953391 0 0 1-0.089044-432.217043 304.973913 304.973913 0 0 1 20.524522-18.610087c1.958957-1.647304 4.006957-3.205565 5.965913-4.763826 5.609739-4.452174 11.308522-8.637217 17.14087-12.599652a312.854261 312.854261 0 0 1 28.894608-17.719652l3.116522-1.558261a306.398609 306.398609 0 0 1 49.152-20.168348c1.602783-0.534261 3.205565-1.113043 4.808348-1.558261 8.592696-2.582261 17.363478-4.719304 26.178782-6.500174 1.691826-0.356174 3.428174-0.623304 5.209044-0.890435a301.901913 301.901913 0 0 1 28.93913-4.006956c8.102957-0.667826 16.294957-1.113043 24.486957-1.157565l2.493217-0.089044c8.592696 0 17.14087 0.445217 25.733565 1.202087l6.010435 0.667826a304.573217 304.573217 0 0 1 45.857392 8.503652c2.448696 0.623304 4.85287 1.202087 7.212521 1.914435 8.370087 2.404174 16.65113 5.12 24.843131 8.281044l0.089043 0.044521c39.624348 15.226435 75.197217 38.422261 105.739131 69.008696a304.795826 304.795826 0 0 1 46.703304 372.201739l-11.842783 19.812174 10.99687 20.301913z" fill="#000A64" p-id="5661"></path><path d="M596.23513 377.455304a262.945391 262.945391 0 0 0-221.584695 220.382609 40.514783 40.514783 0 0 0 80.050087 12.466087 184.631652 184.631652 0 0 1 153.6-152.754087 40.514783 40.514783 0 1 0-12.02087-80.13913z" fill="#000A64" p-id="5662"></path></svg>